<svg id="visual" viewBox="0 0 1920 200" width="1920" height="200" xmlns="http://www.w3.org/2000/svg" xmlns:xlink="http://www.w3.org/1999/xlink" version="1.1"><rect x="0" y="0" width="1920" height="200" fill="#111827"></rect><path d="M0 139L45.7 133.7C91.3 128.3 182.7 117.7 274.2 117.5C365.7 117.3 457.3 127.7 548.8 129.5C640.3 131.3 731.7 124.7 823 118.8C914.3 113 1005.7 108 1097 113C1188.3 118 1279.7 133 1371.2 133.2C1462.7 133.3 1554.3 118.7 1645.8 111.5C1737.3 104.3 1828.7 104.7 1874.3 104.8L1920 105L1920 0L1874.3 0C1828.7 0 1737.3 0 1645.8 0C1554.3 0 1462.7 0 1371.2 0C1279.7 0 1188.3 0 1097 0C1005.7 0 914.3 0 823 0C731.7 0 640.3 0 548.8 0C457.3 0 365.7 0 274.2 0C182.7 0 91.3 0 45.7 0L0 0Z" fill="#00bcd4"></path><path d="M0 98L45.7 99.3C91.3 100.7 182.7 103.3 274.2 104C365.7 104.7 457.3 103.3 548.8 95.7C640.3 88 731.7 74 823 76.7C914.3 79.3 1005.7 98.7 1097 100.3C1188.3 102 1279.7 86 1371.2 79.7C1462.7 73.3 1554.3 76.7 1645.8 84.2C1737.3 91.7 1828.7 103.3 1874.3 109.2L1920 115L1920 0L1874.3 0C1828.7 0 1737.3 0 1645.8 0C1554.3 0 1462.7 0 1371.2 0C1279.7 0 1188.3 0 1097 0C1005.7 0 914.3 0 823 0C731.7 0 640.3 0 548.8 0C457.3 0 365.7 0 274.2 0C182.7 0 91.3 0 45.7 0L0 0Z" fill="#00a9ae"></path><path d="M0 53L45.7 56.2C91.3 59.3 182.7 65.7 274.2 67.3C365.7 69 457.3 66 548.8 64.7C640.3 63.3 731.7 63.7 823 64C914.3 64.3 1005.7 64.7 1097 58.5C1188.3 52.3 1279.7 39.7 1371.2 35.3C1462.7 31 1554.3 35 1645.8 38.3C1737.3 41.7 1828.7 44.3 1874.3 45.7L1920 47L1920 0L1874.3 0C1828.7 0 1737.3 0 1645.8 0C1554.3 0 1462.7 0 1371.2 0C1279.7 0 1188.3 0 1097 0C1005.7 0 914.3 0 823 0C731.7 0 640.3 0 548.8 0C457.3 0 365.7 0 274.2 0C182.7 0 91.3 0 45.7 0L0 0Z" fill="#009688"></path></svg>