<svg id="visual" viewBox="0 0 1920 200" width="1920" height="200" xmlns="http://www.w3.org/2000/svg" xmlns:xlink="http://www.w3.org/1999/xlink" version="1.1"><rect x="0" y="0" width="1920" height="200" fill="#fafafa"></rect><path d="M0 59L45.7 64.3C91.3 69.7 182.7 80.3 274.2 80.5C365.7 80.7 457.3 70.3 548.8 68.5C640.3 66.7 731.7 73.3 823 79.2C914.3 85 1005.7 90 1097 85C1188.3 80 1279.7 65 1371.2 64.8C1462.7 64.7 1554.3 79.3 1645.8 86.5C1737.3 93.7 1828.7 93.3 1874.3 93.2L1920 93L1920 201L1874.3 201C1828.7 201 1737.3 201 1645.8 201C1554.3 201 1462.7 201 1371.2 201C1279.7 201 1188.3 201 1097 201C1005.7 201 914.3 201 823 201C731.7 201 640.3 201 548.8 201C457.3 201 365.7 201 274.2 201C182.7 201 91.3 201 45.7 201L0 201Z" fill="#00bcd4"></path><path d="M0 100L45.7 98.7C91.3 97.3 182.7 94.7 274.2 94C365.7 93.3 457.3 94.7 548.8 102.3C640.3 110 731.7 124 823 121.3C914.3 118.7 1005.7 99.3 1097 97.7C1188.3 96 1279.7 112 1371.2 118.3C1462.7 124.7 1554.3 121.3 1645.8 113.8C1737.3 106.3 1828.7 94.7 1874.3 88.8L1920 83L1920 201L1874.3 201C1828.7 201 1737.3 201 1645.8 201C1554.3 201 1462.7 201 1371.2 201C1279.7 201 1188.3 201 1097 201C1005.7 201 914.3 201 823 201C731.7 201 640.3 201 548.8 201C457.3 201 365.7 201 274.2 201C182.7 201 91.3 201 45.7 201L0 201Z" fill="#00a9ae"></path><path d="M0 145L45.7 141.8C91.3 138.7 182.7 132.3 274.2 130.7C365.7 129 457.3 132 548.8 133.3C640.3 134.7 731.7 134.3 823 134C914.3 133.7 1005.7 133.3 1097 139.5C1188.3 145.7 1279.7 158.3 1371.2 162.7C1462.7 167 1554.3 163 1645.8 159.7C1737.3 156.3 1828.7 153.7 1874.3 152.3L1920 151L1920 201L1874.3 201C1828.7 201 1737.3 201 1645.8 201C1554.3 201 1462.7 201 1371.2 201C1279.7 201 1188.3 201 1097 201C1005.7 201 914.3 201 823 201C731.7 201 640.3 201 548.8 201C457.3 201 365.7 201 274.2 201C182.7 201 91.3 201 45.7 201L0 201Z" fill="#009688"></path></svg>